<?xml version="1.0" encoding="UTF-8"?>
<svg version="1.1" xmlns="http://www.w3.org/2000/svg" width="24" height="24">
<path d="M0 0 C0.99 0.33 1.98 0.66 3 1 C3.268125 1.66 3.53625 2.32 3.8125 3 C4.204375 3.66 4.59625 4.32 5 5 C8.05908413 5.81584568 8.05908413 5.81584568 11 6 C10.42655063 8.86724686 10.1385485 9.8614515 8 12 C7.75787127 13.98128508 7.75787127 13.98128508 7.875 16.125 C7.91625 17.40375 7.9575 18.6825 8 20 C5.95221819 19.48805455 3.94129302 18.98043101 1.9375 18.3125 C-0.32110278 17.72287634 -0.32110278 17.72287634 -3 20 C-3.99 20 -4.98 20 -6 20 C-5.938125 18.741875 -5.87625 17.48375 -5.8125 16.1875 C-5.72774237 12.88391122 -5.72774237 12.88391122 -7.5 10.1875 C-7.995 9.795625 -8.49 9.40375 -9 9 C-9 8.01 -9 7.02 -9 6 C-8.071875 5.938125 -7.14375 5.87625 -6.1875 5.8125 C-2.8109337 5.31172896 -2.8109337 5.31172896 -1.125 2.4375 C-0.75375 1.633125 -0.3825 0.82875 0 0 Z " fill="#91ABFF" transform="translate(11,2)"/>
</svg>
